<svg width="182" height="52" viewBox="0 0 182 52" fill="none" xmlns="http://www.w3.org/2000/svg">
<mask id="path-1-outside-1_1102_131" maskUnits="userSpaceOnUse" x="45.4749" y="13.8555" width="134" height="38" fill="black">
<rect fill="white" x="45.4749" y="13.8555" width="134" height="38"/>
<path d="M59.9416 32.0515V28.1469H73.7782V28.943C73.7782 37.4345 68.5848 43.7274 59.9416 43.7274C51.5638 43.7274 45.6121 37.8515 45.6121 29.3979C45.6121 20.9064 51.6017 14.9547 60.0553 14.9547C66.6135 14.9547 71.9207 18.4044 73.4371 25.2279H68.6227C67.5233 21.0201 63.7704 19.2384 59.9416 19.2384C54.1795 19.2384 50.3507 23.4083 50.3507 29.2463C50.3507 35.16 54.0278 39.5195 60.169 39.5195C65.0593 39.5195 68.3952 36.4868 69.1913 32.0515H59.9416ZM76.0427 42.8555V23.4083H80.7055V25.9861C81.7669 24.0528 84.0035 23.4083 86.3159 23.4083H88.8558V27.692H84.9133C82.5251 27.692 80.8571 29.2463 80.8571 32.8855V42.8555H76.0427ZM99.8354 22.726C106.09 22.726 110.45 27.0476 110.45 33.1509V42.8555H105.977V40.5051C104.309 42.5901 101.996 43.5378 99.0014 43.5378C93.2393 43.5378 89.2589 39.2921 89.2589 33.1509C89.2589 27.0476 93.6184 22.726 99.8354 22.726ZM99.8733 26.9717C96.4615 26.9717 94.0733 29.5495 94.0733 33.1509C94.0733 36.7143 96.4615 39.2921 99.8733 39.2921C103.247 39.2921 105.598 36.6384 105.598 33.3783V33.1509V32.9234C105.598 29.6633 103.361 26.9717 99.8733 26.9717ZM128.917 15.8266H133.731V33.6816C133.731 39.4816 129.409 43.5757 123.382 43.5757C117.241 43.5757 112.73 39.1783 112.73 33.1509C112.73 27.0855 116.824 22.726 122.624 22.726C125.24 22.726 127.4 23.7495 128.917 25.5312V15.8266ZM117.544 33.1509C117.544 36.7522 119.97 39.2921 123.344 39.2921C126.718 39.2921 129.106 36.828 129.106 33.1509V32.9234C129.106 29.6633 126.756 26.9717 123.344 26.9717C119.932 26.9717 117.544 29.5495 117.544 33.1509ZM136.052 18.1011C136.052 16.4331 137.228 15.2959 138.933 15.2959C140.639 15.2959 141.815 16.4331 141.815 18.1011C141.815 19.7312 140.639 20.9064 138.933 20.9064C137.228 20.9064 136.052 19.7312 136.052 18.1011ZM136.545 42.8555V23.4083H141.36V42.8555H136.545ZM144.124 20.9822C144.124 17.0018 146.474 14.424 149.962 14.424H155.913V18.7456H151.516C149.848 18.7456 148.938 19.6554 148.938 21.2854V23.4083H154.662V27.5783H148.938V42.8555H144.124V20.9822ZM159.985 47.2529H162.374C164.572 47.2529 165.975 45.9261 167.188 42.9692L157.635 23.4083H162.791L169.159 36.9796L174.239 23.4083H179.205L171.51 43.3862C169.804 47.9352 167.416 51.5366 163.625 51.5366H159.985V47.2529Z"/>
</mask>
<path d="M59.9416 32.0515V28.1469H73.7782V28.943C73.7782 37.4345 68.5848 43.7274 59.9416 43.7274C51.5638 43.7274 45.6121 37.8515 45.6121 29.3979C45.6121 20.9064 51.6017 14.9547 60.0553 14.9547C66.6135 14.9547 71.9207 18.4044 73.4371 25.2279H68.6227C67.5233 21.0201 63.7704 19.2384 59.9416 19.2384C54.1795 19.2384 50.3507 23.4083 50.3507 29.2463C50.3507 35.16 54.0278 39.5195 60.169 39.5195C65.0593 39.5195 68.3952 36.4868 69.1913 32.0515H59.9416ZM76.0427 42.8555V23.4083H80.7055V25.9861C81.7669 24.0528 84.0035 23.4083 86.3159 23.4083H88.8558V27.692H84.9133C82.5251 27.692 80.8571 29.2463 80.8571 32.8855V42.8555H76.0427ZM99.8354 22.726C106.09 22.726 110.45 27.0476 110.45 33.1509V42.8555H105.977V40.5051C104.309 42.5901 101.996 43.5378 99.0014 43.5378C93.2393 43.5378 89.2589 39.2921 89.2589 33.1509C89.2589 27.0476 93.6184 22.726 99.8354 22.726ZM99.8733 26.9717C96.4615 26.9717 94.0733 29.5495 94.0733 33.1509C94.0733 36.7143 96.4615 39.2921 99.8733 39.2921C103.247 39.2921 105.598 36.6384 105.598 33.3783V33.1509V32.9234C105.598 29.6633 103.361 26.9717 99.8733 26.9717ZM128.917 15.8266H133.731V33.6816C133.731 39.4816 129.409 43.5757 123.382 43.5757C117.241 43.5757 112.73 39.1783 112.73 33.1509C112.73 27.0855 116.824 22.726 122.624 22.726C125.24 22.726 127.4 23.7495 128.917 25.5312V15.8266ZM117.544 33.1509C117.544 36.7522 119.97 39.2921 123.344 39.2921C126.718 39.2921 129.106 36.828 129.106 33.1509V32.9234C129.106 29.6633 126.756 26.9717 123.344 26.9717C119.932 26.9717 117.544 29.5495 117.544 33.1509ZM136.052 18.1011C136.052 16.4331 137.228 15.2959 138.933 15.2959C140.639 15.2959 141.815 16.4331 141.815 18.1011C141.815 19.7312 140.639 20.9064 138.933 20.9064C137.228 20.9064 136.052 19.7312 136.052 18.1011ZM136.545 42.8555V23.4083H141.36V42.8555H136.545ZM144.124 20.9822C144.124 17.0018 146.474 14.424 149.962 14.424H155.913V18.7456H151.516C149.848 18.7456 148.938 19.6554 148.938 21.2854V23.4083H154.662V27.5783H148.938V42.8555H144.124V20.9822ZM159.985 47.2529H162.374C164.572 47.2529 165.975 45.9261 167.188 42.9692L157.635 23.4083H162.791L169.159 36.9796L174.239 23.4083H179.205L171.51 43.3862C169.804 47.9352 167.416 51.5366 163.625 51.5366H159.985V47.2529Z" fill="#03045E"/>
<path d="M59.9416 32.0515H59.8658V32.1273H59.9416V32.0515ZM59.9416 28.1469V28.0711H59.8658V28.1469H59.9416ZM73.7782 28.1469H73.8541V28.0711H73.7782V28.1469ZM73.4371 25.2279V25.3038H73.5316L73.5111 25.2115L73.4371 25.2279ZM68.6227 25.2279L68.5493 25.2471L68.5641 25.3038H68.6227V25.2279ZM69.1913 32.0515L69.2659 32.0649L69.2819 31.9757H69.1913V32.0515ZM59.9416 32.0515H60.0174V28.1469H59.9416H59.8658V32.0515H59.9416ZM59.9416 28.1469V28.2227H73.7782V28.1469V28.0711H59.9416V28.1469ZM73.7782 28.1469H73.7024V28.943H73.7782H73.8541V28.1469H73.7782ZM73.7782 28.943H73.7024C73.7024 33.1736 72.4088 36.8504 70.0448 39.4687C67.6817 42.0861 64.2436 43.6516 59.9416 43.6516V43.7274V43.8032C64.2827 43.8032 67.763 42.2222 70.1574 39.5703C72.5509 36.9193 73.8541 33.2039 73.8541 28.943H73.7782ZM59.9416 43.7274V43.6516C55.7708 43.6516 52.2083 42.1893 49.6887 39.679C47.1691 37.1689 45.6879 33.6064 45.6879 29.3979H45.6121H45.5363C45.5363 33.643 47.031 37.2453 49.5817 39.7865C52.1323 42.3276 55.7345 43.8032 59.9416 43.8032V43.7274ZM45.6121 29.3979H45.6879C45.6879 25.1704 47.1785 21.5795 49.7172 19.0456C52.2558 16.5117 55.8468 15.0305 60.0553 15.0305V14.9547V14.8789C55.8102 14.8789 52.1796 16.3735 49.61 18.9383C47.0405 21.5031 45.5363 25.1338 45.5363 29.3979H45.6121ZM60.0553 14.9547V15.0305C63.3213 15.0305 66.2711 15.8894 68.592 17.5936C70.9122 19.2973 72.6086 21.8491 73.3631 25.2444L73.4371 25.2279L73.5111 25.2115C72.7492 21.7832 71.0338 19.1984 68.6818 17.4714C66.3304 15.7448 63.3475 14.8789 60.0553 14.8789V14.9547ZM73.4371 25.2279V25.1521H68.6227V25.2279V25.3038H73.4371V25.2279ZM68.6227 25.2279L68.696 25.2088C67.585 20.9561 63.7914 19.1626 59.9416 19.1626V19.2384V19.3142C63.7493 19.3142 67.4617 21.0841 68.5493 25.2471L68.6227 25.2279ZM59.9416 19.2384V19.1626C57.0414 19.1626 54.6232 20.2124 52.9303 22.001C51.2377 23.7891 50.2749 26.3106 50.2749 29.2463H50.3507H50.4265C50.4265 26.344 51.378 23.8615 53.0404 22.1052C54.7024 20.3493 57.0796 19.3142 59.9416 19.3142V19.2384ZM50.3507 29.2463H50.2749C50.2749 32.2187 51.1991 34.8065 52.9012 36.6519C54.6039 38.4982 57.0795 39.5953 60.169 39.5953V39.5195V39.4437C57.1174 39.4437 54.6838 38.3611 53.0126 36.5491C51.3408 34.7364 50.4265 32.1876 50.4265 29.2463H50.3507ZM60.169 39.5195V39.5953C65.097 39.5953 68.4635 36.5353 69.2659 32.0649L69.1913 32.0515L69.1167 32.0381C68.3269 36.4383 65.0215 39.4437 60.169 39.4437V39.5195ZM69.1913 32.0515V31.9757H59.9416V32.0515V32.1273H69.1913V32.0515ZM76.0427 42.8555H75.9669V42.9313H76.0427V42.8555ZM76.0427 23.4083V23.3325H75.9669V23.4083H76.0427ZM80.7055 23.4083H80.7813V23.3325H80.7055V23.4083ZM80.7055 25.9861H80.6296L80.7719 26.0226L80.7055 25.9861ZM88.8558 23.4083H88.9316V23.3325H88.8558V23.4083ZM88.8558 27.692V27.7678H88.9316V27.692H88.8558ZM80.8571 42.8555V42.9313H80.9329V42.8555H80.8571ZM76.0427 42.8555H76.1185V23.4083H76.0427H75.9669V42.8555H76.0427ZM76.0427 23.4083V23.4841H80.7055V23.4083V23.3325H76.0427V23.4083ZM80.7055 23.4083H80.6296V25.9861H80.7055H80.7813V23.4083H80.7055ZM80.7055 25.9861L80.7719 26.0226C81.8129 24.1265 84.0122 23.4841 86.3159 23.4841V23.4083V23.3325C83.9949 23.3325 81.7209 23.979 80.639 25.9496L80.7055 25.9861ZM86.3159 23.4083V23.4841H88.8558V23.4083V23.3325H86.3159V23.4083ZM88.8558 23.4083H88.78V27.692H88.8558H88.9316V23.4083H88.8558ZM88.8558 27.692V27.6162H84.9133V27.692V27.7678H88.8558V27.692ZM84.9133 27.692V27.6162C83.702 27.6162 82.6647 28.011 81.9318 28.875C81.2005 29.737 80.7813 31.0556 80.7813 32.8855H80.8571H80.9329C80.9329 31.0762 81.3477 29.798 82.0474 28.9731C82.7456 28.1501 83.7364 27.7678 84.9133 27.7678V27.692ZM80.8571 32.8855H80.7813V42.8555H80.8571H80.9329V32.8855H80.8571ZM80.8571 42.8555V42.7797H76.0427V42.8555V42.9313H80.8571V42.8555ZM110.45 42.8555V42.9313H110.526V42.8555H110.45ZM105.977 42.8555H105.901V42.9313H105.977V42.8555ZM105.977 40.5051H106.052V40.289L105.917 40.4578L105.977 40.5051ZM99.8354 22.726V22.8018C102.945 22.8018 105.579 23.8757 107.435 25.7037C109.291 27.5316 110.374 30.1178 110.374 33.1509H110.45H110.526C110.526 30.0806 109.429 27.4544 107.541 25.5957C105.654 23.737 102.981 22.6502 99.8354 22.6502V22.726ZM110.45 33.1509H110.374V42.8555H110.45H110.526V33.1509H110.45ZM110.45 42.8555V42.7797H105.977V42.8555V42.9313H110.45V42.8555ZM105.977 42.8555H106.052V40.5051H105.977H105.901V42.8555H105.977ZM105.977 40.5051L105.917 40.4578C104.267 42.5212 101.978 43.462 99.0014 43.462V43.5378V43.6136C102.014 43.6136 104.351 42.6591 106.036 40.5525L105.977 40.5051ZM99.0014 43.5378V43.462C96.1398 43.462 93.7247 42.4082 92.0247 40.5954C90.3243 38.7823 89.3347 36.205 89.3347 33.1509H89.2589H89.1831C89.1831 36.2379 90.1837 38.8541 91.9141 40.6992C93.6447 42.5446 96.1009 43.6136 99.0014 43.6136V43.5378ZM89.2589 33.1509H89.3347C89.3347 30.1178 90.4176 27.5316 92.269 25.7036C94.1205 23.8756 96.7449 22.8018 99.8354 22.8018V22.726V22.6502C96.7089 22.6502 94.045 23.7371 92.1625 25.5957C90.2799 27.4544 89.1831 30.0806 89.1831 33.1509H89.2589ZM99.8733 26.9717V26.8959C98.1474 26.8959 96.677 27.5484 95.6385 28.659C94.6003 29.7693 93.9975 31.3333 93.9975 33.1509H94.0733H94.1491C94.1491 31.3671 94.7404 29.8415 95.7493 28.7626C96.7578 27.684 98.1874 27.0476 99.8733 27.0476V26.9717ZM94.0733 33.1509H93.9975C93.9975 36.7516 96.4153 39.3679 99.8733 39.3679V39.2921V39.2162C96.5078 39.2162 94.1491 36.6769 94.1491 33.1509H94.0733ZM99.8733 39.2921V39.3679C103.293 39.3679 105.673 36.676 105.673 33.3783H105.598H105.522C105.522 36.6009 103.201 39.2162 99.8733 39.2162V39.2921ZM105.598 33.3783H105.673V33.1509H105.598H105.522V33.3783H105.598ZM105.598 33.1509H105.673V32.9234H105.598H105.522V33.1509H105.598ZM105.598 32.9234H105.673C105.673 29.6274 103.409 26.8959 99.8733 26.8959V26.9717V27.0476C103.313 27.0476 105.522 29.6991 105.522 32.9234H105.598ZM128.917 15.8266V15.7508H128.841V15.8266H128.917ZM133.731 15.8266H133.807V15.7508H133.731V15.8266ZM128.917 25.5312L128.859 25.5804L128.992 25.7373V25.5312H128.917ZM128.917 15.8266V15.9024H133.731V15.8266V15.7508H128.917V15.8266ZM133.731 15.8266H133.655V33.6816H133.731H133.807V15.8266H133.731ZM133.731 33.6816H133.655C133.655 39.4364 129.371 43.4999 123.382 43.4999V43.5757V43.6516C129.448 43.6516 133.807 39.5268 133.807 33.6816H133.731ZM123.382 43.5757V43.4999C117.281 43.4999 112.805 39.1348 112.805 33.1509H112.73H112.654C112.654 39.2218 117.201 43.6516 123.382 43.6516V43.5757ZM112.73 33.1509H112.805C112.805 27.1233 116.87 22.8018 122.624 22.8018V22.726V22.6502C116.778 22.6502 112.654 27.0476 112.654 33.1509H112.73ZM122.624 22.726V22.8018C125.218 22.8018 127.358 23.8162 128.859 25.5804L128.917 25.5312L128.974 25.4821C127.443 23.6828 125.261 22.6502 122.624 22.6502V22.726ZM128.917 25.5312H128.992V15.8266H128.917H128.841V25.5312H128.917ZM117.544 33.1509H117.468C117.468 36.7902 119.925 39.3679 123.344 39.3679V39.2921V39.2162C120.016 39.2162 117.62 36.7142 117.62 33.1509H117.544ZM123.344 39.2921V39.3679C125.05 39.3679 126.511 38.7444 127.545 37.6525C128.579 36.5609 129.182 35.006 129.182 33.1509H129.106H129.03C129.03 34.9728 128.439 36.4886 127.435 37.5482C126.432 38.6076 125.012 39.2162 123.344 39.2162V39.2921ZM129.106 33.1509H129.182V32.9234H129.106H129.03V33.1509H129.106ZM129.106 32.9234H129.182C129.182 29.626 126.802 26.8959 123.344 26.8959V26.9717V27.0476C126.71 27.0476 129.03 29.7005 129.03 32.9234H129.106ZM123.344 26.9717V26.8959C121.618 26.8959 120.148 27.5484 119.109 28.659C118.071 29.7693 117.468 31.3333 117.468 33.1509H117.544H117.62C117.62 31.3671 118.211 29.8415 119.22 28.7626C120.229 27.684 121.658 27.0476 123.344 27.0476V26.9717ZM136.545 42.8555H136.469V42.9313H136.545V42.8555ZM136.545 23.4083V23.3325H136.469V23.4083H136.545ZM141.36 23.4083H141.435V23.3325H141.36V23.4083ZM141.36 42.8555V42.9313H141.435V42.8555H141.36ZM136.052 18.1011H136.128C136.128 17.2855 136.415 16.6045 136.906 16.1274C137.397 15.65 138.098 15.3717 138.933 15.3717V15.2959V15.2201C138.063 15.2201 137.323 15.5103 136.8 16.0186C136.277 16.5271 135.977 17.2487 135.977 18.1011H136.052ZM138.933 15.2959V15.3717C139.769 15.3717 140.47 15.65 140.961 16.1274C141.452 16.6045 141.739 17.2855 141.739 18.1011H141.815H141.89C141.89 17.2487 141.59 16.5271 141.067 16.0186C140.544 15.5103 139.804 15.2201 138.933 15.2201V15.2959ZM141.815 18.1011H141.739C141.739 18.8974 141.452 19.5787 140.961 20.0609C140.469 20.5432 139.769 20.8305 138.933 20.8305V20.9064V20.9822C139.804 20.9822 140.544 20.682 141.067 20.1691C141.589 19.6562 141.89 18.9349 141.89 18.1011H141.815ZM138.933 20.9064V20.8305C138.098 20.8305 137.398 20.5432 136.906 20.0609C136.415 19.5787 136.128 18.8974 136.128 18.1011H136.052H135.977C135.977 18.9349 136.277 19.6562 136.8 20.1691C137.323 20.682 138.063 20.9822 138.933 20.9822V20.9064ZM136.545 42.8555H136.621V23.4083H136.545H136.469V42.8555H136.545ZM136.545 23.4083V23.4841H141.36V23.4083V23.3325H136.545V23.4083ZM141.36 23.4083H141.284V42.8555H141.36H141.435V23.4083H141.36ZM141.36 42.8555V42.7797H136.545V42.8555V42.9313H141.36V42.8555ZM155.913 14.424H155.989V14.3482H155.913V14.424ZM155.913 18.7456V18.8214H155.989V18.7456H155.913ZM148.938 23.4083H148.862V23.4841H148.938V23.4083ZM154.662 23.4083H154.738V23.3325H154.662V23.4083ZM154.662 27.5783V27.6541H154.738V27.5783H154.662ZM148.938 27.5783V27.5025H148.862V27.5783H148.938ZM148.938 42.8555V42.9313H149.014V42.8555H148.938ZM144.124 42.8555H144.048V42.9313H144.124V42.8555ZM144.124 20.9822H144.199C144.199 19.0067 144.783 17.3864 145.791 16.261C146.799 15.1364 148.238 14.4998 149.962 14.4998V14.424V14.3482C148.198 14.3482 146.717 15.0005 145.678 16.1598C144.64 17.3184 144.048 18.9773 144.048 20.9822H144.124ZM149.962 14.424V14.4998H155.913V14.424V14.3482H149.962V14.424ZM155.913 14.424H155.837V18.7456H155.913H155.989V14.424H155.913ZM155.913 18.7456V18.6697H151.516V18.7456V18.8214H155.913V18.7456ZM151.516 18.7456V18.6697C150.669 18.6697 150.002 18.901 149.548 19.3503C149.094 19.7997 148.862 20.4566 148.862 21.2854H148.938H149.014C149.014 20.4842 149.237 19.8711 149.655 19.4581C150.072 19.045 150.695 18.8214 151.516 18.8214V18.7456ZM148.938 21.2854H148.862V23.4083H148.938H149.014V21.2854H148.938ZM148.938 23.4083V23.4841H154.662V23.4083V23.3325H148.938V23.4083ZM154.662 23.4083H154.586V27.5783H154.662H154.738V23.4083H154.662ZM154.662 27.5783V27.5025H148.938V27.5783V27.6541H154.662V27.5783ZM148.938 27.5783H148.862V42.8555H148.938H149.014V27.5783H148.938ZM148.938 42.8555V42.7797H144.124V42.8555V42.9313H148.938V42.8555ZM144.124 42.8555H144.199V20.9822H144.124H144.048V42.8555H144.124ZM159.985 47.2529V47.1771H159.91V47.2529H159.985ZM167.188 42.9692L167.258 42.998L167.271 42.9665L167.256 42.9359L167.188 42.9692ZM157.635 23.4083V23.3325H157.514L157.567 23.4416L157.635 23.4083ZM162.791 23.4083L162.859 23.3761L162.839 23.3325H162.791V23.4083ZM169.159 36.9796L169.091 37.0118L169.167 37.1749L169.23 37.0062L169.159 36.9796ZM174.239 23.4083V23.3325H174.187L174.168 23.3817L174.239 23.4083ZM179.205 23.4083L179.276 23.4356L179.316 23.3325H179.205V23.4083ZM171.51 43.3862L171.439 43.3589L171.439 43.3596L171.51 43.3862ZM159.985 51.5366H159.91V51.6124H159.985V51.5366ZM159.985 47.2529V47.3287H162.374V47.2529V47.1771H159.985V47.2529ZM162.374 47.2529V47.3287C163.491 47.3287 164.409 46.9909 165.201 46.2761C165.991 45.5638 166.65 44.4809 167.258 42.998L167.188 42.9692L167.118 42.9404C166.513 44.4144 165.865 45.4733 165.1 46.1636C164.337 46.8515 163.456 47.1771 162.374 47.1771V47.2529ZM167.188 42.9692L167.256 42.9359L157.703 23.3751L157.635 23.4083L157.567 23.4416L167.12 43.0025L167.188 42.9692ZM157.635 23.4083V23.4841H162.791V23.4083V23.3325H157.635V23.4083ZM162.791 23.4083L162.722 23.4405L169.091 37.0118L169.159 36.9796L169.228 36.9474L162.859 23.3761L162.791 23.4083ZM169.159 36.9796L169.23 37.0062L174.31 23.4349L174.239 23.4083L174.168 23.3817L169.088 36.953L169.159 36.9796ZM174.239 23.4083V23.4841H179.205V23.4083V23.3325H174.239V23.4083ZM179.205 23.4083L179.134 23.3811L171.439 43.3589L171.51 43.3862L171.58 43.4134L179.276 23.4356L179.205 23.4083ZM171.51 43.3862L171.439 43.3596C170.587 45.6307 169.567 47.6584 168.292 49.1174C167.018 50.5747 165.493 51.4607 163.625 51.4607V51.5366V51.6124C165.548 51.6124 167.112 50.6978 168.406 49.2172C169.699 47.7382 170.726 45.6907 171.581 43.4128L171.51 43.3862ZM163.625 51.5366V51.4607H159.985V51.5366V51.6124H163.625V51.5366ZM159.985 51.5366H160.061V47.2529H159.985H159.91V51.5366H159.985Z" fill="#03045E" mask="url(#path-1-outside-1_1102_131)"/>
<path d="M25.212 23.0167C28.3814 22.5929 30.7953 19.7476 30.577 16.4455C30.376 13.3994 27.835 10.8966 24.7581 10.7134C24.6291 10.7057 24.5011 10.7017 24.3739 10.7017C21.7409 10.7017 19.4919 12.3234 18.586 14.6135C18.5163 14.7895 18.3568 14.8775 18.1977 14.8775C18.0382 14.8775 17.8787 14.7895 17.8095 14.6135C16.904 12.3238 14.6546 10.7017 12.0215 10.7017C11.8953 10.7017 11.7686 10.7053 11.6406 10.7129C8.51306 10.8975 5.94971 13.4793 5.81072 16.5791C5.65806 19.9895 8.30981 22.8136 11.6725 22.9986V23.0162L25.212 23.0167ZM24.5867 13.4635C26.2287 13.4635 27.5643 14.7864 27.5643 16.4126C27.5643 18.0388 26.2287 19.3617 24.5867 19.3617C22.9448 19.3617 21.6092 18.0388 21.6092 16.4126C21.6092 14.7864 22.9448 13.4635 24.5867 13.4635ZM16.8844 19.7986L17.9088 18.8417C18.071 18.6905 18.324 18.6905 18.4862 18.8417L19.5106 19.7986C19.6533 19.9317 19.6838 20.1448 19.5849 20.3122L18.5605 22.0458C18.3978 22.3207 17.9968 22.3207 17.8341 22.0458L16.8097 20.3122C16.7112 20.1448 16.7422 19.9317 16.8844 19.7986ZM8.83114 16.4126C8.83114 14.7864 10.1668 13.4635 11.8087 13.4635C13.4506 13.4635 14.7863 14.7864 14.7863 16.4126C14.7863 18.0388 13.4506 19.3617 11.8087 19.3617C10.1668 19.3612 8.83114 18.0388 8.83114 16.4126Z" stroke="#03045E" stroke-width="1.51635"/>
<path d="M34.3953 25.8335V2.88829C34.3953 2.53805 34.1875 2.22075 33.8648 2.07767C33.5413 1.93595 33.1649 1.99372 32.901 2.22752L28.3963 6.22781C25.56 4.22699 21.9695 3.13337 18.1981 3.13337C14.5105 3.13337 10.9792 4.18637 8.16981 6.11001L3.47193 2.20766C3.20489 1.9865 2.83258 1.93685 2.51723 2.08354C2.20188 2.22932 2 2.54301 2 2.88784V27.2317C2 35.718 8.97049 42.6213 17.5378 42.6213H33.0705C33.3558 42.6213 33.6187 42.5293 33.8352 42.3767C34.2221 42.4178 34.614 42.4417 35.0118 42.4417H37.7278V31.6288C37.7283 29.1626 36.389 27.0115 34.3953 25.8335ZM17.5378 40.8462C9.95846 40.8462 3.79229 34.739 3.79229 27.2322V4.79117L7.5537 7.9154C7.87497 8.1826 8.33979 8.19163 8.67382 7.94068C11.2586 5.98499 14.6408 4.90807 18.1976 4.90807C21.8419 4.90807 25.2843 6.03148 27.8914 8.07067C28.2332 8.33832 28.7208 8.32342 29.0453 8.03546L32.603 4.87603V25.0955C32.0611 24.9583 31.497 24.8775 30.9118 24.8775H28.6228C26.1224 24.8775 24.0954 26.8851 24.0954 29.3616V31.6288C24.0954 35.5338 26.193 38.9456 29.326 40.8457L17.5378 40.8462ZM35.936 40.6665H35.0123C29.9808 40.6665 25.8877 36.6125 25.8877 31.6292V29.3621C25.8877 27.8681 27.1149 26.6531 28.6228 26.6531H30.9118C33.6821 26.6531 35.936 28.8855 35.936 31.6292V40.6665Z" stroke="#03045E" stroke-width="2.43432"/>
</svg>
